<svg width="16" height="19" viewBox="0 0 16 19" fill="none" xmlns="http://www.w3.org/2000/svg">
<path d="M5.04211 6.3V4.7C5.04211 2.93269 6.24858 1.5 7.73684 1.5L11.7789 1.5C13.2672 1.5 14.4737 2.93269 14.4737 4.7V9.5C14.4737 11.2673 13.2672 12.7 11.7789 12.7H10.4316M5.04211 6.3H3.69474C2.20647 6.3 1 7.73269 1 9.5V14.3C1 16.0673 2.20647 17.5 3.69474 17.5H7.73684C9.2251 17.5 10.4316 16.0673 10.4316 14.3V12.7M5.04211 6.3H7.73684C9.2251 6.3 10.4316 7.73269 10.4316 9.5V12.7" stroke="#3C23DE" stroke-width="1.5" stroke-linejoin="round"/>
</svg>
