<svg width="21" height="22" viewBox="0 0 21 22" fill="none" xmlns="http://www.w3.org/2000/svg">
<path d="M19.56 9.74055L18.2 8.16055C17.94 7.86055 17.73 7.30055 17.73 6.90055V5.20055C17.73 4.14055 16.86 3.27055 15.8 3.27055H14.1C13.71 3.27055 13.14 3.06055 12.84 2.80055L11.26 1.44055C10.57 0.850547 9.44 0.850547 8.74 1.44055L7.17 2.81055C6.87 3.06055 6.3 3.27055 5.91 3.27055H4.18C3.12 3.27055 2.25 4.14055 2.25 5.20055V6.91055C2.25 7.30055 2.04 7.86055 1.79 8.16055L0.440005 9.75055C-0.139995 10.4405 -0.139995 11.5605 0.440005 12.2505L1.79 13.8405C2.04 14.1405 2.25 14.7005 2.25 15.0905V16.8005C2.25 17.8605 3.12 18.7305 4.18 18.7305H5.91C6.3 18.7305 6.87 18.9405 7.17 19.2005L8.75 20.5605C9.44 21.1505 10.57 21.1505 11.27 20.5605L12.85 19.2005C13.15 18.9405 13.71 18.7305 14.11 18.7305H15.81C16.87 18.7305 17.74 17.8605 17.74 16.8005V15.1005C17.74 14.7105 17.95 14.1405 18.21 13.8405L19.57 12.2605C20.15 11.5705 20.15 10.4305 19.56 9.74055ZM14.16 9.11055L9.33 13.9405C9.18938 14.081 8.99876 14.1599 8.8 14.1599C8.60125 14.1599 8.41063 14.081 8.27001 13.9405L5.85 11.5205C5.56 11.2305 5.56 10.7505 5.85 10.4605C6.14 10.1705 6.62 10.1705 6.91 10.4605L8.8 12.3505L13.1 8.05055C13.39 7.76055 13.87 7.76055 14.16 8.05055C14.45 8.34055 14.45 8.82055 14.16 9.11055Z" fill="#62AAFB"/>
</svg>
