<svg width="28" height="28" viewBox="0 0 28 28" fill="none" xmlns="http://www.w3.org/2000/svg">
<rect width="28" height="28" fill="#010019"/>
<path d="M6.72104 8.38094L6.63999 7.38423L6.72104 8.38094ZM9.13059 7.4221L9.75361 8.20431L9.13059 7.4221ZM20.1277 18.4192L20.9099 19.0422L20.9099 19.0422L20.1277 18.4192ZM19.1688 20.8287L20.1656 20.9098L19.1688 20.8287ZM5.28123 12.0888L5.98834 11.3817L5.28123 12.0888ZM15.461 22.2686L14.7539 22.9757L15.461 22.2686ZM22.3547 15.6231L21.5725 15.0001L22.3547 15.6231ZM11.9267 5.19506L11.3036 4.41285V4.41285L11.9267 5.19506ZM14.0849 24.6886C14.5877 24.46 14.8099 23.8671 14.5812 23.3644C14.3526 22.8616 13.7597 22.6394 13.257 22.868L14.0849 24.6886ZM9.63148 19.2426C9.86012 18.7398 9.63791 18.1469 9.13518 17.9183C8.63244 17.6897 8.03955 17.9119 7.81091 18.4146L9.63148 19.2426ZM16.1681 21.5614L5.98834 11.3817L4.57413 12.7959L14.7539 22.9757L16.1681 21.5614ZM21.5725 15.0001L19.3455 17.7962L20.9099 19.0422L23.1369 16.2461L21.5725 15.0001ZM9.75361 8.20431L12.5497 5.97726L11.3036 4.41285L8.50757 6.6399L9.75361 8.20431ZM6.80209 9.37765C7.87718 9.29023 8.90553 8.8798 9.75361 8.20431L8.50757 6.6399C7.96613 7.07115 7.31405 7.32942 6.63999 7.38423L6.80209 9.37765ZM19.3455 17.7962C18.67 18.6443 18.2596 19.6726 18.1721 20.7477L20.1656 20.9098C20.2204 20.2357 20.4786 19.5837 20.9099 19.0422L19.3455 17.7962ZM5.98834 11.3817C5.33721 10.7306 5.7376 9.46421 6.80209 9.37765L6.63999 7.38423C3.99258 7.5995 2.636 10.8578 4.57413 12.7959L5.98834 11.3817ZM14.7539 22.9757C16.692 24.9138 19.9503 23.5572 20.1656 20.9098L18.1721 20.7477C18.0856 21.8122 16.8192 22.2126 16.1681 21.5614L14.7539 22.9757ZM23.1369 16.2461C25.8556 12.8328 25.6675 7.962 22.6276 4.92215L21.2134 6.33637C23.5012 8.62419 23.6864 12.3461 21.5725 15.0001L23.1369 16.2461ZM12.5497 5.97726C15.2037 3.86336 18.9256 4.04855 21.2134 6.33637L22.6276 4.92215C19.5878 1.8823 14.717 1.69417 11.3036 4.41285L12.5497 5.97726ZM13.257 22.868C12.3296 23.2898 11.1126 23.1056 10.2533 22.2463L8.83905 23.6605C10.2649 25.0863 12.3693 25.4689 14.0849 24.6886L13.257 22.868ZM10.2533 22.2463C9.39393 21.3869 9.20975 20.1699 9.63148 19.2426L7.81091 18.4146C7.03067 20.1302 7.41319 22.2346 8.83905 23.6605L10.2533 22.2463Z" fill="#F4F3FF"/>
<rect x="20.125" y="2.625" width="7" height="7" rx="3.5" fill="#BF1A2F"/>
</svg>
