<svg width="24" height="24" viewBox="0 0 24 24" fill="none" xmlns="http://www.w3.org/2000/svg">
<path d="M21 5.98047C17.67 5.65047 14.32 5.48047 10.98 5.48047C9 5.48047 7.02 5.58047 5.04 5.78047L3 5.98047" stroke="#FF6565" stroke-width="1.5" stroke-linecap="round" stroke-linejoin="round"/>
<path d="M8.5 4.97L8.72 3.66C8.88 2.71 9 2 10.69 2H13.31C15 2 15.13 2.75 15.28 3.67L15.5 4.97" stroke="#FF6565" stroke-width="1.5" stroke-linecap="round" stroke-linejoin="round"/>
<path d="M18.8499 9.13965L18.1999 19.2096C18.0899 20.7796 17.9999 21.9996 15.2099 21.9996H8.7899C5.9999 21.9996 5.9099 20.7796 5.7999 19.2096L5.1499 9.13965" stroke="#FF6565" stroke-width="1.5" stroke-linecap="round" stroke-linejoin="round"/>
<path d="M10.3301 16.5H13.6601" stroke="#FF6565" stroke-width="1.5" stroke-linecap="round" stroke-linejoin="round"/>
<path d="M9.5 12.5H14.5" stroke="#FF6565" stroke-width="1.5" stroke-linecap="round" stroke-linejoin="round"/>
</svg>
