<svg width="30" height="24" viewBox="0 0 30 24" fill="none" xmlns="http://www.w3.org/2000/svg">
<path d="M4.33366 1.33301L25.667 22.6663M17.667 14.9811C16.9593 15.6145 16.0248 15.9997 15.0003 15.9997C12.7912 15.9997 11.0003 14.2088 11.0003 11.9997C11.0003 10.9752 11.3855 10.0407 12.0188 9.33301M25.144 16.8099C25.9058 16.1467 26.5873 15.4796 27.1741 14.8622C28.7202 13.2354 28.7202 10.7639 27.1741 9.13714C24.5663 6.39345 20.0877 2.66634 15.0003 2.66634C13.8118 2.66634 12.6566 2.86976 11.5506 3.21653M7.66699 5.07085C5.72224 6.31226 4.06384 7.83538 2.8266 9.13714C1.28046 10.7639 1.28046 13.2354 2.8266 14.8622C5.43431 17.6059 9.91297 21.333 15.0003 21.333C17.4911 21.333 19.836 20.4396 21.8868 19.2056" stroke="#F4F3FF" stroke-width="2.5" stroke-linecap="round"/>
</svg>
